<?xml version="1.0" encoding="UTF-8" standalone="no"?>
<svg
   width="1280"
   height="1280"
   viewBox="0 0 338.66666 338.66667"
   version="1.1"
   id="svg8"
   inkscape:version="1.1 (c68e22c387, 2021-05-23)"
   sodipodi:docname="logowithbackground.svg"
   inkscape:export-filename="C:\Users\tsets\OneDrive\Imágenes\Logos Chechu\logowch.png"
   inkscape:export-xdpi="96.010002"
   inkscape:export-ydpi="96.010002"
   xmlns:inkscape="http://www.inkscape.org/namespaces/inkscape"
   xmlns:sodipodi="http://sodipodi.sourceforge.net/DTD/sodipodi-0.dtd"
   xmlns:xlink="http://www.w3.org/1999/xlink"
   xmlns="http://www.w3.org/2000/svg"
   xmlns:svg="http://www.w3.org/2000/svg"
   xmlns:rdf="http://www.w3.org/1999/02/22-rdf-syntax-ns#"
   xmlns:cc="http://creativecommons.org/ns#"
   xmlns:dc="http://purl.org/dc/elements/1.1/">
  <defs
     id="defs2">
    <linearGradient
       inkscape:collect="always"
       id="linearGradient1327">
      <stop
         style="stop-color:#306db3;stop-opacity:1;"
         offset="0"
         id="stop1323" />
      <stop
         style="stop-color:#1577e8;stop-opacity:1"
         offset="1"
         id="stop1325" />
    </linearGradient>
    <linearGradient
       inkscape:collect="always"
       id="linearGradient1243">
      <stop
         style="stop-color:#223e5e;stop-opacity:1;"
         offset="0"
         id="stop1239" />
      <stop
         style="stop-color:#045abd;stop-opacity:1"
         offset="1"
         id="stop1241" />
    </linearGradient>
    <linearGradient
       inkscape:collect="always"
       xlink:href="#linearGradient1243"
       id="linearGradient1245"
       x1="71.484512"
       y1="134.10776"
       x2="168.93887"
       y2="231.17287"
       gradientUnits="userSpaceOnUse" />
    <linearGradient
       inkscape:collect="always"
       xlink:href="#linearGradient1243"
       id="linearGradient1255"
       gradientUnits="userSpaceOnUse"
       x1="267.18216"
       y1="204.5589"
       x2="169.72778"
       y2="301.62402" />
    <linearGradient
       inkscape:collect="always"
       xlink:href="#linearGradient1243"
       id="linearGradient1263"
       x1="103.13965"
       y1="214.7648"
       x2="74.152145"
       y2="185.77728"
       gradientUnits="userSpaceOnUse" />
    <linearGradient
       inkscape:collect="always"
       xlink:href="#linearGradient1243"
       id="linearGradient1277"
       x1="83.079041"
       y1="238.31509"
       x2="108.4431"
       y2="263.67917"
       gradientUnits="userSpaceOnUse" />
    <linearGradient
       inkscape:collect="always"
       xlink:href="#linearGradient1243"
       id="linearGradient1291"
       x1="124.50342"
       y1="264.22757"
       x2="146.24406"
       y2="285.9682"
       gradientUnits="userSpaceOnUse" />
    <linearGradient
       inkscape:collect="always"
       xlink:href="#linearGradient1243"
       id="linearGradient1305"
       x1="192.42259"
       y1="52.698387"
       x2="214.16322"
       y2="74.439011"
       gradientUnits="userSpaceOnUse" />
    <linearGradient
       inkscape:collect="always"
       xlink:href="#linearGradient1243"
       id="linearGradient1313"
       x1="230.22354"
       y1="74.987434"
       x2="255.58762"
       y2="100.3515"
       gradientUnits="userSpaceOnUse" />
    <linearGradient
       inkscape:collect="always"
       xlink:href="#linearGradient1243"
       id="linearGradient1321"
       x1="235.52699"
       y1="123.9018"
       x2="264.5145"
       y2="152.8893"
       gradientUnits="userSpaceOnUse" />
    <linearGradient
       inkscape:collect="always"
       xlink:href="#linearGradient1327"
       id="linearGradient1329"
       x1="168.93887"
       y1="37.042648"
       x2="71.484512"
       y2="134.10776"
       gradientUnits="userSpaceOnUse" />
    <linearGradient
       inkscape:collect="always"
       xlink:href="#linearGradient1327"
       id="linearGradient1339"
       gradientUnits="userSpaceOnUse"
       x1="169.72778"
       y1="107.4938"
       x2="267.18216"
       y2="204.5589" />
    <linearGradient
       inkscape:collect="always"
       xlink:href="#linearGradient1327"
       id="linearGradient1343"
       gradientUnits="userSpaceOnUse"
       x1="192.42259"
       y1="52.698387"
       x2="214.16322"
       y2="74.439011" />
    <linearGradient
       inkscape:collect="always"
       xlink:href="#linearGradient1327"
       id="linearGradient1347"
       gradientUnits="userSpaceOnUse"
       x1="230.22354"
       y1="74.987434"
       x2="255.58762"
       y2="100.3515" />
    <linearGradient
       inkscape:collect="always"
       xlink:href="#linearGradient1327"
       id="linearGradient1351"
       gradientUnits="userSpaceOnUse"
       x1="235.52699"
       y1="123.90179"
       x2="264.5145"
       y2="152.8893" />
    <linearGradient
       inkscape:collect="always"
       xlink:href="#linearGradient1327"
       id="linearGradient1361"
       gradientUnits="userSpaceOnUse"
       x1="74.152145"
       y1="185.77728"
       x2="103.13965"
       y2="214.7648" />
    <linearGradient
       inkscape:collect="always"
       xlink:href="#linearGradient1327"
       id="linearGradient1371"
       gradientUnits="userSpaceOnUse"
       x1="83.079041"
       y1="238.31509"
       x2="108.4431"
       y2="263.67917" />
    <linearGradient
       inkscape:collect="always"
       xlink:href="#linearGradient1327"
       id="linearGradient1383"
       x1="124.50342"
       y1="264.22757"
       x2="146.24406"
       y2="285.9682"
       gradientUnits="userSpaceOnUse" />
    <filter
       style="color-interpolation-filters:sRGB;"
       inkscape:label="Drop Shadow"
       id="filter7250"
       x="-0.061319085"
       y="-0.04535433"
       width="1.1379679"
       height="1.1020472">
      <feFlood
         flood-opacity="0.498039"
         flood-color="rgb(0,0,0)"
         result="flood"
         id="feFlood7240" />
      <feComposite
         in="flood"
         in2="SourceGraphic"
         operator="in"
         result="composite1"
         id="feComposite7242" />
      <feGaussianBlur
         in="composite1"
         stdDeviation="5"
         result="blur"
         id="feGaussianBlur7244" />
      <feOffset
         dx="3"
         dy="3"
         result="offset"
         id="feOffset7246" />
      <feComposite
         in="SourceGraphic"
         in2="offset"
         operator="over"
         result="composite2"
         id="feComposite7248" />
    </filter>
  </defs>
  <sodipodi:namedview
     id="base"
     pagecolor="#ffffff"
     bordercolor="#666666"
     borderopacity="1.0"
     inkscape:pageopacity="0.0"
     inkscape:pageshadow="2"
     inkscape:zoom="0.45254833"
     inkscape:cx="236.43884"
     inkscape:cy="694.9534"
     inkscape:document-units="px"
     inkscape:current-layer="layer1"
     inkscape:document-rotation="0"
     showgrid="false"
     units="px"
     showborder="true"
     inkscape:showpageshadow="true"
     borderlayer="false"
     inkscape:pagecheckerboard="false"
     inkscape:window-width="1920"
     inkscape:window-height="1017"
     inkscape:window-x="-8"
     inkscape:window-y="-8"
     inkscape:window-maximized="1"
     showguides="false" />
  <metadata
     id="metadata5">
    <rdf:RDF>
      <cc:Work
         rdf:about="">
        <dc:format>image/svg+xml</dc:format>
        <dc:type
           rdf:resource="http://purl.org/dc/dcmitype/StillImage" />
        <cc:license
           rdf:resource="" />
      </cc:Work>
    </rdf:RDF>
  </metadata>
  <g
     inkscape:label="Capa 1"
     inkscape:groupmode="layer"
     id="layer1">
    <circle
       style="fill:#fdab9f;fill-opacity:1;stroke-width:0.264583"
       id="path1261"
       cx="169.33333"
       cy="169.33333"
       r="169.33333" />
    <g
       id="g7238"
       style="filter:url(#filter7250)">
      <path
         id="path858"
         style="fill:url(#linearGradient1329);fill-rule:nonzero;stroke:none;stroke-width:0.16927;fill-opacity:1"
         d="m 168.93888,37.042649 c -0.23755,0.0092 -0.48179,0.08346 -0.73203,0.22811 -5.85528,3.384567 -96.722337,96.837001 -96.722337,96.837001 H 105.3185 c 0,0 58.96669,-59.036638 62.88835,-62.962964 7.60091,-7.609954 5.56232,-34.289602 0.73203,-34.102147 z"
         inkscape:export-filename="C:\Users\tsets\Downloads\path843.png"
         inkscape:export-xdpi="96.010002"
         inkscape:export-ydpi="96.010002" />
      <path
         id="path2776"
         style="fill:url(#linearGradient1245);fill-rule:nonzero;stroke:none;stroke-width:0.16927;fill-opacity:1"
         d="m 168.93887,231.17287 c -0.23755,-0.009 -0.48178,-0.0835 -0.73202,-0.22811 -5.85528,-3.38457 -96.722337,-96.837 -96.722337,-96.837 H 105.3185 c 0,0 58.96669,59.03663 62.88835,62.96296 7.60091,7.60995 5.56232,34.2896 0.73202,34.10215 z"
         inkscape:export-filename="C:\Users\tsets\Downloads\path843.png"
         inkscape:export-xdpi="96.010002"
         inkscape:export-ydpi="96.010002" />
      <path
         id="path843"
         style="fill:url(#linearGradient1339);fill-rule:nonzero;stroke:none;stroke-width:0.16927;fill-opacity:1.0"
         d="m 169.72779,107.4938 c -4.83029,-0.18745 -6.86889,26.49219 0.73202,34.10215 3.92166,3.92632 62.88836,62.96295 62.88836,62.96295 h 33.83398 c 0,0 -90.86706,-93.45242 -96.72234,-96.83699 -0.25024,-0.14465 -0.49447,-0.21889 -0.73202,-0.22811 z"
         inkscape:export-filename="C:\Users\tsets\Downloads\path843.png"
         inkscape:export-xdpi="96.010002"
         inkscape:export-ydpi="96.010002" />
      <path
         id="path2778"
         style="fill:url(#linearGradient1255);fill-rule:nonzero;stroke:none;stroke-width:0.16927;fill-opacity:1.0"
         d="m 169.72779,301.62402 c -4.83029,0.18745 -6.86889,-26.49219 0.73202,-34.10215 3.92166,-3.92633 62.88836,-62.96297 62.88836,-62.96297 h 33.83398 c 0,0 -90.86706,93.45244 -96.72234,96.83701 -0.25024,0.14465 -0.49447,0.21889 -0.73202,0.22811 z"
         inkscape:export-filename="C:\Users\tsets\Downloads\path843.png"
         inkscape:export-xdpi="96.010002"
         inkscape:export-ydpi="96.010002" />
      <path
         id="path2812"
         style="fill:url(#linearGradient1291);fill-rule:nonzero;stroke:none;stroke-width:0.163364;fill-opacity:1"
         d="m 146.24406,285.96821 c -0.53901,0.53901 -1.28468,0.87146 -2.11071,0.87146 h -17.51938 c -1.65206,0 -2.98201,-1.32995 -2.98201,-2.982 l -1.6e-4,-17.51955 c 0,-0.82602 0.33262,-1.57154 0.87162,-2.11054 z" />
      <path
         id="path2814"
         style="fill:url(#linearGradient1383);fill-rule:nonzero;stroke:none;stroke-width:0.163364;fill-opacity:1"
         d="m 146.24406,285.96821 c 0.539,-0.539 0.87146,-1.28468 0.87146,-2.11071 l -1e-5,-17.51937 c 0,-1.65206 -1.32994,-2.98201 -2.982,-2.98201 l -17.51954,-1.6e-4 c -0.82603,0 -1.57154,0.33261 -2.11055,0.87162 z" />
      <path
         id="path2806"
         style="fill:url(#linearGradient1277);fill-rule:nonzero;stroke:none;stroke-width:0.190591;fill-opacity:1"
         d="m 108.4431,263.67916 c -0.62883,0.62884 -1.49879,1.0167 -2.46248,1.0167 H 85.541335 c -1.927396,0 -3.479004,-1.55161 -3.479004,-3.479 l -1.9e-4,-20.43947 c 0,-0.9637 0.388059,-1.83346 1.016893,-2.4623 z" />
      <path
         id="path2808"
         style="fill:url(#linearGradient1371);fill-rule:nonzero;stroke:none;stroke-width:0.190591;fill-opacity:1.0"
         d="m 108.44311,263.67916 c 0.62883,-0.62884 1.0167,-1.49879 1.0167,-2.4625 V 240.7774 c 0,-1.92741 -1.55161,-3.47901 -3.47901,-3.47901 l -20.439459,-1.9e-4 c -0.963704,0 -1.833461,0.38805 -2.462301,1.01689 z" />
      <path
         id="rect860"
         style="fill:url(#linearGradient1263);fill-rule:nonzero;stroke:none;stroke-width:0.217818;fill-opacity:1"
         d="m 103.13965,214.7648 c -0.71867,0.71868 -1.7129,1.16195 -2.81427,1.16195 H 76.966197 c -2.202738,0 -3.976004,-1.77326 -3.976004,-3.97601 l -2.19e-4,-23.35939 c 0,-1.10137 0.443497,-2.09538 1.162165,-2.81406 z" />
      <path
         id="path2800"
         style="fill:url(#linearGradient1361);fill-rule:nonzero;stroke:none;stroke-width:0.217819;fill-opacity:1.0"
         d="m 103.13965,214.7648 c 0.71868,-0.71867 1.16195,-1.7129 1.16195,-2.81428 v -23.35916 c 0,-2.20274 -1.77327,-3.97601 -3.97601,-3.97601 l -23.359381,-2.2e-4 c -1.101378,0 -2.09539,0.44349 -2.814064,1.16216 z" />
      <path
         id="path2847"
         style="fill:url(#linearGradient1343);fill-rule:nonzero;stroke:none;stroke-width:0.163364;fill-opacity:1.0"
         d="m 192.42259,52.69838 c 0.539,-0.539006 1.28467,-0.871461 2.1107,-0.871461 h 17.51939 c 1.65205,0 2.982,1.329952 2.982,2.982004 l 1.6e-4,17.519548 c 0,0.826023 -0.33261,1.571538 -0.87162,2.110543 z" />
      <path
         id="path2849"
         style="fill:url(#linearGradient1305);fill-rule:nonzero;stroke:none;stroke-width:0.163364;fill-opacity:1"
         d="m 192.42259,52.698386 c -0.539,0.538999 -0.87147,1.284674 -0.87147,2.110703 l 1e-5,17.519376 c 0,1.652058 1.32995,2.982004 2.982,2.982004 l 17.51954,1.66e-4 c 0.82604,0 1.57154,-0.332615 2.11055,-0.871621 z" />
      <path
         id="path2853"
         style="fill:url(#linearGradient1347);fill-rule:nonzero;stroke:none;stroke-width:0.190591;fill-opacity:1.0"
         d="m 230.22354,74.987434 c 0.62884,-0.62884 1.49879,-1.016704 2.46249,-1.016704 h 20.43928 c 1.92739,0 3.479,1.551609 3.479,3.479005 l 1.9e-4,20.439469 c 0,0.963698 -0.38806,1.833461 -1.01689,2.462296 z" />
      <path
         id="path2855"
         style="fill:url(#linearGradient1313);fill-rule:nonzero;stroke:none;stroke-width:0.190591;fill-opacity:1"
         d="m 230.22353,74.987434 c -0.62883,0.62884 -1.0167,1.498792 -1.0167,2.462496 v 20.439268 c 0,1.927402 1.55161,3.479002 3.47901,3.479002 l 20.43946,2e-4 c 0.9637,0 1.83346,-0.38806 2.4623,-1.0169 z" />
      <path
         id="path2859"
         style="fill:url(#linearGradient1351);fill-rule:nonzero;stroke:none;stroke-width:0.217818;fill-opacity:1.0"
         d="m 235.52699,123.90179 c 0.71867,-0.71868 1.71291,-1.16195 2.81428,-1.16195 h 23.35917 c 2.20274,0 3.97601,1.77327 3.97601,3.97601 l 2.1e-4,23.35939 c 0,1.10137 -0.44349,2.09539 -1.16216,2.81406 z" />
      <path
         id="path2861"
         style="fill:url(#linearGradient1321);fill-rule:nonzero;stroke:none;stroke-width:0.217819;fill-opacity:1"
         d="m 235.52699,123.9018 c -0.71867,0.71866 -1.16195,1.71289 -1.16195,2.81427 v 23.35917 c 0,2.20274 1.77327,3.976 3.97601,3.976 l 23.35939,2.3e-4 c 1.10137,0 2.09538,-0.44349 2.81406,-1.16217 z" />
    </g>
  </g>
</svg>
